<?xml version="1.0" encoding="UTF-8" standalone="no"?>
<!-- Created with Inkscape (http://www.inkscape.org/) -->

<svg
   width="32mm"
   height="32mm"
   viewBox="0 0 32 32"
   version="1.1"
   id="svg5"
   inkscape:version="1.1.2 (0a00cf5339, 2022-02-04)"
   sodipodi:docname="favicon.svg"
   xmlns:inkscape="http://www.inkscape.org/namespaces/inkscape"
   xmlns:sodipodi="http://sodipodi.sourceforge.net/DTD/sodipodi-0.dtd"
   xmlns="http://www.w3.org/2000/svg"
   xmlns:svg="http://www.w3.org/2000/svg">
  <sodipodi:namedview
     id="namedview7"
     pagecolor="#ffffff"
     bordercolor="#666666"
     borderopacity="1.0"
     inkscape:pageshadow="2"
     inkscape:pageopacity="0.0"
     inkscape:pagecheckerboard="0"
     inkscape:document-units="mm"
     showgrid="false"
     width="32mm"
     inkscape:zoom="4.39"
     inkscape:cx="54.897494"
     inkscape:cy="56.492027"
     inkscape:window-width="1920"
     inkscape:window-height="951"
     inkscape:window-x="0"
     inkscape:window-y="32"
     inkscape:window-maximized="1"
     inkscape:current-layer="layer1" />
  <defs
     id="defs2" />
  <g
     inkscape:label="Layer 1"
     inkscape:groupmode="layer"
     id="layer1">
    <g
       aria-label="CMS"
       id="text2300"
       style="font-size:13.4211px;stroke-width:0.335527"
       transform="translate(-0.14503125)">
      <path
         d="M 10.050488,7.8479338 V 9.2437806 Q 9.3820545,8.6212198 8.621875,8.3132161 7.8682488,8.0052123 7.0163235,8.0052123 q -1.6776374,0 -2.5688823,1.0288636 -0.8912449,1.0223101 -0.8912449,2.9620791 0,1.933215 0.8912449,2.962078 0.8912449,1.022311 2.5688823,1.022311 0.8519253,0 1.6055515,-0.308004 0.7601795,-0.308004 1.428613,-0.930565 v 1.38274 q -0.6946466,0.471836 -1.4744859,0.707754 -0.773286,0.235918 -1.6383178,0.235918 -2.221559,0 -3.4994469,-1.356528 -1.2778879,-1.36308 -1.2778879,-3.715704 0,-2.3591781 1.2778879,-3.7157053 1.2778879,-1.3630804 3.4994469,-1.3630804 0.8781383,0 1.6514243,0.2359177 0.7798393,0.2293645 1.4613794,0.6946468 z"
         id="path14338" />
      <path
         d="m 12.095108,7.0943076 h 1.972535 l 2.496797,6.6581234 2.509902,-6.6581234 h 1.972535 V 16.878342 H 19.755883 V 8.287003 l -2.52301,6.71055 H 15.902559 L 13.37955,8.287003 v 8.591339 h -1.284442 z"
         id="path14340" />
      <path
         d="M 29.539918,7.4154179 V 8.7064123 Q 28.786292,8.3459824 28.117858,8.1690441 27.449425,7.9921058 26.826864,7.9921058 q -1.08129,0 -1.671084,0.4194093 -0.583242,0.4194094 -0.583242,1.1926954 0,0.6487735 0.386643,0.9829905 0.393197,0.327664 1.48104,0.530815 l 0.799499,0.163832 q 1.481039,0.281791 2.182239,0.996097 0.707754,0.707754 0.707754,1.900449 0,1.42206 -0.956778,2.156026 -0.950224,0.733967 -2.791694,0.733967 -0.694646,0 -1.481039,-0.157279 -0.779839,-0.157278 -1.618658,-0.465282 v -1.363081 q 0.806052,0.452176 1.579338,0.681541 0.773286,0.229364 1.520359,0.229364 1.133716,0 1.749724,-0.445622 0.616007,-0.445623 0.616007,-1.271335 0,-0.72086 -0.445622,-1.127163 -0.439069,-0.406303 -1.448273,-0.609454 L 26.047024,12.382798 Q 24.565985,12.0879 23.904105,11.458786 23.242224,10.829672 23.242224,9.7090629 q 0,-1.2975478 0.910905,-2.0446207 0.917458,-0.7470729 2.52301,-0.7470729 0.688093,0 1.4024,0.1245121 0.714306,0.1245122 1.461379,0.3735365 z"
         id="path14342" />
    </g>
    <g
       aria-label="JS"
       id="text3162"
       style="font-size:10.5833px;stroke-width:0.264583"
       transform="translate(-0.19252939,-0.00720739)">
      <path
         d="m 23.421782,20.547478 h 1.049028 l -1.400427,7.177834 q -0.273884,1.400427 -0.925005,2.025709 -0.645954,0.630451 -1.813837,0.630451 h -0.41341 l 0.170531,-0.878497 h 0.325561 q 0.697629,0 1.059363,-0.397907 0.361734,-0.397907 0.552936,-1.379756 z"
         style="-inkscape-font-specification:'sans-serif Italic'"
         id="path14488" />
      <path
         d="m 31.157719,20.800692 -0.201538,1.018022 q -0.52193,-0.279052 -1.038693,-0.418577 -0.511595,-0.144694 -0.992184,-0.144694 -0.93534,0 -1.488276,0.408243 -0.552936,0.408242 -0.552936,1.085201 0,0.372069 0.201537,0.573607 0.206705,0.19637 1.054196,0.423745 l 0.625283,0.155029 q 1.059363,0.273884 1.472773,0.69763 0.41341,0.418577 0.41341,1.178218 0,1.167884 -0.919837,1.901687 -0.91467,0.733803 -2.413282,0.733803 -0.614947,0 -1.235063,-0.124023 -0.620115,-0.118855 -1.245398,-0.366901 l 0.211873,-1.074867 q 0.573607,0.356566 1.147213,0.537433 0.578774,0.180867 1.152381,0.180867 0.976681,0 1.565791,-0.43408 0.589109,-0.434081 0.589109,-1.131711 0,-0.465086 -0.23771,-0.702797 -0.232544,-0.242878 -1.007688,-0.439248 l -0.625283,-0.160197 q -1.069698,-0.279051 -1.462438,-0.640785 -0.387572,-0.366902 -0.387572,-1.02319 0,-1.152381 0.883664,-1.886184 0.888832,-0.738971 2.309929,-0.738971 0.552936,0 1.095537,0.09818 0.542601,0.09819 1.085202,0.294555 z"
         style="-inkscape-font-specification:'sans-serif Italic'"
         id="path14490" />
    </g>
  </g>
</svg>
